<svg width="64" height="60" viewBox="0 0 64 60" fill="none" xmlns="http://www.w3.org/2000/svg">
<path d="M28.2586 5.57201C13.2032 5.03347 0.557926 16.7763 0.0182717 31.805C-0.178382 37.2132 1.22106 42.3064 3.79585 46.6375L0.69055 57.431C0.55335 57.9148 0.681404 58.4396 1.03355 58.8002C1.28966 59.0695 1.64181 59.2201 2.0031 59.2292C2.13573 59.2338 2.26378 59.2201 2.39641 59.1881L13.6926 56.3814C17.4244 58.5264 21.7142 59.8179 26.315 59.9822C41.375 60.5208 54.0203 48.7734 54.5599 33.7447C55.0904 18.7296 43.3187 6.11054 28.2586 5.57201ZM35.4479 40.8141C34.9906 41.7131 34.3778 42.4753 33.614 43.1005C32.8503 43.7258 31.9722 44.205 30.9798 44.5427C29.9874 44.8804 28.9538 45.0447 27.8836 45.0447C26.69 45.0447 25.3317 44.9352 23.8042 44.7253C22.2767 44.5108 20.484 43.9768 18.4397 43.1234L19.9077 38.8653C21.3438 39.413 22.6106 39.7963 23.7127 40.0108C24.8149 40.2253 25.8531 40.3303 26.8318 40.3303C27.9614 40.3303 28.7892 40.093 29.3105 39.6229C29.8319 39.1483 30.0926 38.6234 30.0926 38.0438C30.0926 37.3729 29.8182 36.807 29.2648 36.3506C28.716 35.8942 28.0254 35.4652 27.2022 35.0682C26.3744 34.6711 25.4872 34.2741 24.5405 33.877C23.5938 33.48 22.7066 33.0007 21.8834 32.4348C21.0556 31.8689 20.3696 31.1843 19.8208 30.3765C19.272 29.5687 18.9931 28.5556 18.9931 27.3324C18.9931 26.6022 19.1394 25.8309 19.4275 25.0231C19.7156 24.2153 20.2004 23.4851 20.8727 22.8279C21.545 22.1707 22.4231 21.6231 23.5115 21.1804C24.5954 20.7377 25.9171 20.5186 27.4766 20.5186C28.5148 20.5186 29.5803 20.5962 30.6642 20.7468C31.7481 20.902 33.0286 21.2214 34.4967 21.7098L33.0286 25.8264C31.835 25.5206 30.87 25.3152 30.1383 25.2103C29.402 25.1053 28.6565 25.0505 27.8928 25.0505C27.0056 25.0505 26.3104 25.2285 25.8028 25.5754C25.2997 25.9268 25.0482 26.4242 25.0482 27.0632C25.0482 27.7021 25.3226 28.2543 25.8759 28.7107C26.4247 29.1671 27.1153 29.5961 27.9385 29.9932C28.7617 30.3902 29.6489 30.801 30.6002 31.23C31.5469 31.659 32.4341 32.161 33.2619 32.7406C34.0897 33.3202 34.7757 34.0139 35.3245 34.8217C35.8733 35.6295 36.1522 36.629 36.1522 37.8202C36.1339 38.9155 35.9053 39.915 35.4479 40.8141Z" fill="#DB00FA"/>
<path d="M36.701 0.0178004C21.641 -0.520734 8.99573 11.2266 8.45608 26.2508C8.25942 31.659 9.65886 36.7522 12.2337 41.0833L9.12836 51.8768C8.99116 52.3606 9.11921 52.8854 9.47136 53.246C9.72746 53.5153 10.0796 53.6659 10.4409 53.675C10.5735 53.6795 10.7016 53.6659 10.8342 53.6339L22.1304 50.8317C25.8622 52.9767 30.152 54.2683 34.7528 54.4326C49.8128 54.9711 62.4581 43.2238 62.9977 28.1996C63.5328 13.1754 51.761 0.556335 36.701 0.0178004ZM43.8903 35.2598C43.433 36.1589 42.8201 36.9211 42.0564 37.5463C41.2927 38.1716 40.4146 38.6508 39.4222 38.9885C38.4297 39.3262 37.3962 39.4905 36.326 39.4905C35.1324 39.4905 33.7741 39.381 32.2466 39.1711C30.7191 38.9566 28.9263 38.4226 26.8821 37.5692L28.3501 33.3111C29.7861 33.8587 31.0529 34.2421 32.1551 34.4566C33.2573 34.6711 34.2954 34.7761 35.2741 34.7761C36.4038 34.7761 37.2315 34.5388 37.7529 34.0687C38.2742 33.594 38.5349 33.0692 38.5349 32.4896C38.5349 31.8187 38.2605 31.2528 37.7072 30.7964C37.1584 30.34 36.4678 29.911 35.6446 29.514C34.8168 29.1169 33.9296 28.7199 32.9829 28.3228C32.0362 27.9257 31.149 27.4465 30.3258 26.8806C29.498 26.3147 28.812 25.6301 28.2632 24.8223C27.7144 24.0145 27.4354 23.0013 27.4354 21.7782C27.4354 21.048 27.5818 20.2767 27.8699 19.4689C28.158 18.6611 28.6428 17.9309 29.3151 17.2737C29.9874 16.6165 30.8654 16.0689 31.9539 15.6262C33.0378 15.1835 34.3595 14.9644 35.919 14.9644C36.9571 14.9644 38.0227 15.042 39.1066 15.1926C40.1905 15.3478 41.471 15.6672 42.9391 16.1556L41.471 20.2767C40.2774 19.971 39.3124 19.7656 38.5807 19.6606C37.8444 19.5556 37.0989 19.5009 36.3352 19.5009C35.4479 19.5009 34.7528 19.6789 34.2451 20.0257C33.7421 20.3771 33.4905 20.8746 33.4905 21.5135C33.4905 22.1525 33.7649 22.7047 34.3183 23.1611C34.8671 23.6175 35.5577 24.0465 36.3809 24.4435C37.2041 24.8406 38.0913 25.2513 39.0426 25.6803C39.9892 26.1093 40.8765 26.6114 41.6997 27.191C42.5275 27.7706 43.2135 28.4643 43.7623 29.2721C44.3111 30.0799 44.59 31.0794 44.59 32.2705C44.5763 33.3613 44.3476 34.3608 43.8903 35.2598Z" fill="#4EFADC"/>
<path d="M32.4844 2.12631C17.4244 1.58321 4.77912 13.3306 4.23946 28.3593C4.04281 33.7675 5.44225 38.8607 8.01704 43.1918L4.90717 53.9853C4.76997 54.4691 4.89802 54.994 5.25017 55.3545C5.50628 55.6238 5.85843 55.7744 6.21972 55.7835C6.35235 55.7881 6.4804 55.7744 6.61303 55.7424L17.9092 52.9357C21.641 55.0807 25.9308 56.3722 30.5316 56.5365C45.5916 57.0751 58.2369 45.3277 58.7765 30.299C59.3116 15.2839 47.5399 2.66485 32.4844 2.12631ZM39.6691 37.3684C39.2118 38.2674 38.599 39.0296 37.8352 39.6549C37.0715 40.2801 36.1934 40.7593 35.201 41.097C34.2086 41.4348 33.175 41.5991 32.1048 41.5991C30.9112 41.5991 29.5529 41.4895 28.0254 41.2796C26.4979 41.0651 24.7052 40.5311 22.6609 39.6777L24.1289 35.4196C25.5649 35.9673 26.8318 36.3506 27.9339 36.5651C29.0361 36.7796 30.0743 36.8846 31.053 36.8846C32.1826 36.8846 33.0103 36.6473 33.5317 36.1772C34.0531 35.7026 34.3138 35.1777 34.3138 34.5981C34.3138 33.9272 34.0393 33.3613 33.486 32.9049C32.9372 32.4485 32.2466 32.0195 31.4234 31.6225C30.5956 31.2254 29.7084 30.8284 28.7617 30.4313C27.815 30.0343 26.9278 29.5551 26.1046 28.9891C25.2768 28.4232 24.5908 27.7386 24.042 26.9308C23.4932 26.123 23.2143 25.1099 23.2143 23.8868C23.2143 23.1565 23.3606 22.3852 23.6487 21.5774C23.9368 20.7696 24.4216 20.0394 25.0939 19.3822C25.7662 18.725 26.6443 18.1774 27.7327 17.7347C28.8166 17.292 30.1383 17.0729 31.6978 17.0729C32.7359 17.0729 33.8015 17.1505 34.8854 17.3011C35.9693 17.4563 37.2498 17.7758 38.7179 18.2641L37.2498 22.3852C36.0562 22.0795 35.0958 21.8741 34.3595 21.7691C33.6232 21.6642 32.8731 21.6094 32.114 21.6094C31.2267 21.6094 30.5316 21.7874 30.0285 22.1342C29.5255 22.4856 29.2739 22.9831 29.2739 23.622C29.2739 24.261 29.5483 24.8132 30.1017 25.2696C30.6505 25.726 31.3411 26.155 32.1643 26.552C32.9875 26.9491 33.8747 27.3598 34.826 27.7888C35.7726 28.2178 36.6599 28.7199 37.4876 29.2995C38.3154 29.8791 39.0014 30.5728 39.5502 31.3806C40.099 32.1884 40.378 33.1879 40.378 34.379C40.3551 35.4652 40.1265 36.4693 39.6691 37.3684Z" fill="black"/>
<path d="M35.5486 30.6504C34.7254 30.0708 33.8381 29.5688 32.8869 29.1397C31.9402 28.7153 31.053 28.3 30.2252 27.9029C29.3974 27.5059 28.7114 27.0815 28.1626 26.6205C27.6138 26.1641 27.3349 25.6119 27.3349 24.973C27.3349 24.334 27.5864 23.8366 28.0895 23.4851C28.5925 23.1337 29.2877 22.9603 30.1749 22.9603C30.9386 22.9603 31.6887 23.0151 32.4204 23.12C33.1521 23.225 34.1171 23.4349 35.3108 23.7362L36.7788 19.615C35.3108 19.1267 34.0348 18.8072 32.9463 18.652C31.8625 18.5014 30.7969 18.4238 29.7587 18.4238C28.1992 18.4238 26.8775 18.6475 25.7936 19.0856C24.7052 19.5283 23.8271 20.0759 23.1548 20.7331C22.4825 21.3903 22.0023 22.1205 21.7096 22.9283C21.417 23.7362 21.2752 24.5074 21.2752 25.2377C21.2752 26.4562 21.5496 27.4739 22.103 28.2817C22.6518 29.0895 23.3423 29.7787 24.1655 30.34C24.9933 30.906 25.876 31.3852 26.8226 31.7822C27.7693 32.1793 28.6565 32.5763 29.4843 32.9734C30.3121 33.3704 30.9981 33.7949 31.5469 34.2558C32.0957 34.7122 32.3747 35.2781 32.3747 35.949C32.3747 36.5286 32.114 37.0535 31.5972 37.5281C31.0758 38.0027 30.2526 38.2355 29.1185 38.2355C28.1398 38.2355 27.1016 38.1305 25.9994 37.916C24.8973 37.7015 23.6305 37.3227 22.1944 36.7705L20.7264 41.0286C22.7752 41.882 24.5634 42.416 26.0909 42.6305C27.6184 42.845 28.9813 42.95 30.1703 42.95C31.2405 42.95 32.2741 42.7811 33.2665 42.4479C34.2589 42.1148 35.137 41.631 35.9007 41.0058C36.6645 40.3805 37.2773 39.6184 37.7346 38.7193C38.192 37.8202 38.4206 36.8207 38.4206 35.7208C38.4206 34.5297 38.1462 33.5302 37.5928 32.7224C37.0623 31.9237 36.3718 31.23 35.5486 30.6504Z" fill="#DB00FA"/>
<path d="M39.0014 27.3963C38.1782 26.8167 37.291 26.3147 36.3398 25.8857C35.3931 25.4612 34.5059 25.0459 33.6781 24.6489C32.8503 24.2518 32.1643 23.8274 31.6155 23.3664C31.0667 22.91 30.7877 22.3578 30.7877 21.7189C30.7877 21.0799 31.0393 20.5825 31.5423 20.2311C32.0454 19.8796 32.7406 19.7062 33.6278 19.7062C34.3915 19.7062 35.1416 19.761 35.8733 19.866C36.605 19.9709 37.57 20.1809 38.7636 20.4821L40.2317 16.3655C38.7636 15.8772 37.4877 15.5577 36.3992 15.4025C35.3153 15.2519 34.2497 15.1743 33.2116 15.1743C31.6521 15.1743 30.3304 15.3979 29.2465 15.8361C28.1581 16.2788 27.28 16.8264 26.6077 17.4836C25.9354 18.1408 25.4506 18.871 25.1625 19.6788C24.8698 20.4866 24.7281 21.2579 24.7281 21.9881C24.7281 23.2067 25.0025 24.2244 25.5558 25.0322C26.1046 25.84 26.7952 26.5292 27.6184 27.0905C28.4462 27.6564 29.3288 28.1356 30.2755 28.5327C31.2222 28.9298 32.1094 29.3268 32.9372 29.7239C33.765 30.1209 34.451 30.5454 34.9998 31.0063C35.5486 31.4627 35.8276 32.0286 35.8276 32.6995C35.8276 33.2791 35.5669 33.8039 35.0501 34.2786C34.5287 34.7532 33.7055 34.986 32.5713 34.986C31.5926 34.986 30.5545 34.881 29.4523 34.6665C28.3501 34.452 27.0833 34.0732 25.6473 33.521L24.1793 37.7791C26.2281 38.6325 28.0163 39.1665 29.5438 39.381C31.0713 39.5955 32.4341 39.7004 33.6232 39.7004C34.6934 39.7004 35.7269 39.5316 36.7194 39.1984C37.7118 38.8652 38.5898 38.3815 39.3536 37.7562C40.1173 37.131 40.7302 36.3688 41.1875 35.4697C41.6448 34.5707 41.8735 33.5712 41.8735 32.4713C41.8735 31.2801 41.5991 30.2807 41.0457 29.4729C40.5152 28.6696 39.8292 27.9759 39.0014 27.3963Z" fill="#4EFADC"/>
<path d="M37.4648 29.2903C36.6416 28.7107 35.7543 28.2086 34.8031 27.7796C33.8564 27.3552 32.9692 26.9399 32.1414 26.5428C31.3136 26.1458 30.6276 25.7213 30.0788 25.2604C29.53 24.804 29.251 24.2518 29.251 23.6128C29.251 22.9739 29.5026 22.4764 30.0056 22.125C30.5087 21.7736 31.2039 21.6002 32.0911 21.6002C32.8548 21.6002 33.6049 21.655 34.3366 21.7599C35.0683 21.8649 36.0333 22.0748 37.227 22.376L38.695 18.2549C37.2269 17.7666 35.951 17.4471 34.8625 17.2919C33.7787 17.1413 32.7131 17.0637 31.6749 17.0637C30.1154 17.0637 28.7937 17.2873 27.7098 17.7255C26.6214 18.1682 25.7433 18.7158 25.071 19.373C24.3987 20.0302 23.914 20.7604 23.6258 21.5682C23.3331 22.376 23.1914 23.1473 23.1914 23.8775C23.1914 25.0961 23.4658 26.1138 24.0191 26.9216C24.5679 27.7294 25.2585 28.4186 26.0817 28.9799C26.9095 29.5459 27.7922 30.0251 28.7388 30.4221C29.6855 30.8192 30.5727 31.2162 31.4005 31.6133C32.2283 32.0103 32.9143 32.4348 33.4631 32.8957C34.0119 33.3521 34.2909 33.918 34.2909 34.5889C34.2909 35.1685 34.0302 35.6934 33.5088 36.168C32.9875 36.6426 32.1643 36.8754 31.0301 36.8754C30.0514 36.8754 29.0132 36.7704 27.9111 36.5559C26.8089 36.3414 25.5421 35.9626 24.106 35.4104L22.638 39.6685C24.6869 40.5219 26.475 41.0559 28.0025 41.2704C29.53 41.4849 30.8929 41.5899 32.0819 41.5899C33.1521 41.5899 34.1857 41.421 35.1781 41.0878C36.1705 40.7547 37.0486 40.2709 37.8123 39.6457C38.5761 39.0204 39.1889 38.2582 39.6462 37.3592C40.1036 36.4601 40.3322 35.4606 40.3322 34.3607C40.3322 33.1695 40.0578 32.1701 39.5045 31.3623C38.9785 30.5636 38.2925 29.8699 37.4648 29.2903Z" fill="white"/>
</svg>
